<?xml version="1.0" standalone="no"?>
<!DOCTYPE svg PUBLIC "-//W3C//DTD SVG 20010904//EN"
 "http://www.w3.org/TR/2001/REC-SVG-20010904/DTD/svg10.dtd">
<svg version="1.0" xmlns="http://www.w3.org/2000/svg"
 width="400.000000pt" height="400.000000pt" viewBox="0 0 400.000000 400.000000"
 preserveAspectRatio="xMidYMid meet">
<metadata>
Created by potrace 1.11, written by Peter Selinger 2001-2013
</metadata>
<g transform="translate(0.000000,400.000000) scale(0.100000,-0.100000)"
fill="#000000" stroke="none">
<path d="M1858 3995 c-2 -2 -32 -6 -68 -9 -233 -24 -442 -83 -665 -191 -114
-55 -312 -175 -355 -216 -8 -8 -37 -32 -64 -53 -185 -150 -379 -394 -496 -626
-62 -123 -135 -317 -154 -410 -3 -14 -10 -43 -15 -65 -5 -22 -12 -58 -16 -80
-3 -22 -10 -62 -15 -90 -22 -124 -7 -499 25 -660 71 -353 255 -707 506 -971
l58 -61 -44 -47 c-25 -25 -45 -55 -45 -66 0 -46 85 -64 232 -49 32 3 51 -6
145 -68 249 -164 532 -274 818 -317 129 -19 415 -20 557 -1 563 74 1072 392
1393 870 75 112 190 341 228 456 35 102 75 262 82 329 4 30 8 57 10 61 9 13
19 164 19 269 -1 118 -7 200 -24 305 -17 103 -20 118 -46 213 -207 767 -849
1339 -1639 1457 -89 14 -417 28 -427 20z"/>
</g>
</svg>
